# xmcd
#
# Track frame offsets: 
#        150
#        20565
#        37417
#        57142
#        74383
#        91722
#        112811
#        131703
#        152677
#        174588
#        194972
#        216638
#        239260
#        264580
#        282726
#        284708
#        305644
#        324454
#
# Disc length: 4617 seconds
#
# Revision: 0
# Processed by: cddbd v1.5.2PL0 Copyright (c) Steve Scherf et al.
# Submitted via: ExactAudioCopyFreeDBPlugin 1.0
#
DISCID=24120712
DTITLE=Various Artist - 90's R&B Flavas
DYEAR=2007
DGENRE=R&B
TTITLE0=TLC - Diggin' On You (L.A.'s Live Remix)
TTITLE1=SWV - Right Here ( Human Nature Radio Remix)
TTITLE2=Jomanda - I Like It
TTITLE3=Aaliyah - Back and Forth
TTITLE4=R. Kelly - She's Got That Vibe (Jerv Remix)
TTITLE5=Chantay Savage - Betcha'll Never Find
TTITLE6=Tina Moore - Never Gonna Let You Go
TTITLE7=Toni Braxton - Another Sad Love Song ( Remix Radio Edit)
TTITLE8=Monica - Before You Walk Out Of My Life
TTITLE9=Hi-Five - She's Playing Hard To Get
TTITLE10=Hi-Five feat. Nuttin' Nyce - What Can I Say To You (To Justif
TTITLE10=y My Love)
TTITLE11=Tony Thompson - I Wanna Love Like That
TTITLE12=DJ Jazzy Jeff and The Fresh Prince - Summertime ( DJ Jazzy Jeff
TTITLE12='s Remix)
TTITLE13=Smooth - It's Summertime (Let Get Into U)
TTITLE14=Jermaine Jackson - I Dream, I Dream (Prelude)
TTITLE15=Jermaine Jackson - I Dream, I Dream
TTITLE16=Me-2-U - Want U Back
TTITLE17=Blackgirl - 90's Girl (Encore Remix)
EXTD=
EXTT0=
EXTT1=
EXTT2=
EXTT3=
EXTT4=
EXTT5=
EXTT6=
EXTT7=
EXTT8=
EXTT9=
EXTT10=
EXTT11=
EXTT12=
EXTT13=
EXTT14=
EXTT15=
EXTT16=
EXTT17=
PLAYORDER=
